<mxfile host="app.diagrams.net" modified="2024-06-10T12:04:05.223Z" agent="Mozilla/5.0 (Windows NT 10.0; Win64; x64) AppleWebKit/537.36 (KHTML, like Gecko) Chrome/125.0.0.0 Safari/537.36" etag="gme3BS6O4RhhwXhEcyPV" version="24.5.2" type="github">
  <diagram name="Page-1" id="d5tvj6ynj1gz0IOn6Os5">
    <mxGraphModel dx="1235" dy="614" grid="1" gridSize="10" guides="1" tooltips="1" connect="1" arrows="1" fold="1" page="1" pageScale="1" pageWidth="827" pageHeight="1169" math="0" shadow="0">
      <root>
        <mxCell id="0" />
        <mxCell id="1" parent="0" />
        <mxCell id="B6Qjt9TekkukQeBUbV8k-35" value="" style="rounded=0;whiteSpace=wrap;html=1;strokeWidth=3;" vertex="1" parent="1">
          <mxGeometry x="520" y="291.25" width="190" height="100" as="geometry" />
        </mxCell>
        <mxCell id="B6Qjt9TekkukQeBUbV8k-1" value="" style="shape=trapezoid;perimeter=trapezoidPerimeter;whiteSpace=wrap;html=1;fixedSize=1;rotation=-90;strokeWidth=3;" vertex="1" parent="1">
          <mxGeometry x="110" y="320" width="135" height="42.5" as="geometry" />
        </mxCell>
        <mxCell id="B6Qjt9TekkukQeBUbV8k-2" value="" style="rounded=0;whiteSpace=wrap;html=1;strokeWidth=3;" vertex="1" parent="1">
          <mxGeometry x="240" y="280" width="160" height="40" as="geometry" />
        </mxCell>
        <mxCell id="B6Qjt9TekkukQeBUbV8k-3" value="" style="rounded=0;whiteSpace=wrap;html=1;strokeWidth=3;" vertex="1" parent="1">
          <mxGeometry x="240" y="360" width="160" height="40" as="geometry" />
        </mxCell>
        <mxCell id="B6Qjt9TekkukQeBUbV8k-4" value="" style="shape=trapezoid;perimeter=trapezoidPerimeter;whiteSpace=wrap;html=1;fixedSize=1;rotation=-90;flipH=1;flipV=1;strokeWidth=3;" vertex="1" parent="1">
          <mxGeometry x="395.63" y="318.13" width="135" height="46.25" as="geometry" />
        </mxCell>
        <mxCell id="B6Qjt9TekkukQeBUbV8k-5" value="" style="endArrow=classic;html=1;rounded=0;exitX=0.798;exitY=0.996;exitDx=0;exitDy=0;entryX=0;entryY=0.5;entryDx=0;entryDy=0;exitPerimeter=0;strokeWidth=3;" edge="1" parent="1" source="B6Qjt9TekkukQeBUbV8k-1" target="B6Qjt9TekkukQeBUbV8k-2">
          <mxGeometry width="50" height="50" relative="1" as="geometry">
            <mxPoint x="390" y="300" as="sourcePoint" />
            <mxPoint x="440" y="250" as="targetPoint" />
          </mxGeometry>
        </mxCell>
        <mxCell id="B6Qjt9TekkukQeBUbV8k-6" value="" style="endArrow=classic;html=1;rounded=0;exitX=0.798;exitY=0.996;exitDx=0;exitDy=0;entryX=0;entryY=0.5;entryDx=0;entryDy=0;exitPerimeter=0;strokeWidth=3;" edge="1" parent="1">
          <mxGeometry width="50" height="50" relative="1" as="geometry">
            <mxPoint x="199" y="380.5" as="sourcePoint" />
            <mxPoint x="240" y="379.5" as="targetPoint" />
          </mxGeometry>
        </mxCell>
        <mxCell id="B6Qjt9TekkukQeBUbV8k-7" value="" style="endArrow=classic;html=1;rounded=0;exitX=0.798;exitY=0.996;exitDx=0;exitDy=0;exitPerimeter=0;strokeWidth=3;" edge="1" parent="1">
          <mxGeometry width="50" height="50" relative="1" as="geometry">
            <mxPoint x="400" y="300.5" as="sourcePoint" />
            <mxPoint x="440" y="300" as="targetPoint" />
          </mxGeometry>
        </mxCell>
        <mxCell id="B6Qjt9TekkukQeBUbV8k-8" value="" style="endArrow=classic;html=1;rounded=0;exitX=0.798;exitY=0.996;exitDx=0;exitDy=0;exitPerimeter=0;strokeWidth=3;" edge="1" parent="1">
          <mxGeometry width="50" height="50" relative="1" as="geometry">
            <mxPoint x="400" y="380.25" as="sourcePoint" />
            <mxPoint x="440" y="379.75" as="targetPoint" />
          </mxGeometry>
        </mxCell>
        <mxCell id="B6Qjt9TekkukQeBUbV8k-9" value="&lt;font style=&quot;font-size: 14px;&quot; face=&quot;Times New Roman&quot;&gt;&lt;b&gt;PING MEMORY&lt;/b&gt;&lt;/font&gt;" style="text;html=1;align=center;verticalAlign=middle;whiteSpace=wrap;rounded=0;" vertex="1" parent="1">
          <mxGeometry x="260" y="285" width="120" height="30" as="geometry" />
        </mxCell>
        <mxCell id="B6Qjt9TekkukQeBUbV8k-10" value="&lt;font style=&quot;font-size: 14px;&quot; face=&quot;Times New Roman&quot;&gt;&lt;b&gt;PONG MEMORY&lt;/b&gt;&lt;/font&gt;" style="text;html=1;align=center;verticalAlign=middle;whiteSpace=wrap;rounded=0;" vertex="1" parent="1">
          <mxGeometry x="260" y="365" width="120" height="30" as="geometry" />
        </mxCell>
        <mxCell id="B6Qjt9TekkukQeBUbV8k-11" value="&lt;font style=&quot;font-size: 14px;&quot; face=&quot;Times New Roman&quot;&gt;&lt;b&gt;0&lt;/b&gt;&lt;/font&gt;" style="text;html=1;align=center;verticalAlign=middle;whiteSpace=wrap;rounded=0;" vertex="1" parent="1">
          <mxGeometry x="180" y="292.5" width="20" height="15" as="geometry" />
        </mxCell>
        <mxCell id="B6Qjt9TekkukQeBUbV8k-12" value="&lt;font style=&quot;font-size: 14px;&quot; face=&quot;Times New Roman&quot;&gt;&lt;b&gt;1&lt;/b&gt;&lt;/font&gt;" style="text;html=1;align=center;verticalAlign=middle;whiteSpace=wrap;rounded=0;" vertex="1" parent="1">
          <mxGeometry x="180" y="372.5" width="20" height="15" as="geometry" />
        </mxCell>
        <mxCell id="B6Qjt9TekkukQeBUbV8k-13" value="&lt;font style=&quot;font-size: 14px;&quot; face=&quot;Times New Roman&quot;&gt;&lt;b&gt;0&lt;/b&gt;&lt;/font&gt;" style="text;html=1;align=center;verticalAlign=middle;whiteSpace=wrap;rounded=0;" vertex="1" parent="1">
          <mxGeometry x="440" y="292.5" width="20" height="15" as="geometry" />
        </mxCell>
        <mxCell id="B6Qjt9TekkukQeBUbV8k-14" value="&lt;font style=&quot;font-size: 14px;&quot; face=&quot;Times New Roman&quot;&gt;&lt;b&gt;1&lt;/b&gt;&lt;/font&gt;" style="text;html=1;align=center;verticalAlign=middle;whiteSpace=wrap;rounded=0;" vertex="1" parent="1">
          <mxGeometry x="440" y="372.5" width="20" height="15" as="geometry" />
        </mxCell>
        <mxCell id="B6Qjt9TekkukQeBUbV8k-15" value="" style="endArrow=classic;html=1;rounded=0;entryX=0;entryY=0.5;entryDx=0;entryDy=0;strokeWidth=3;" edge="1" parent="1" target="B6Qjt9TekkukQeBUbV8k-1">
          <mxGeometry width="50" height="50" relative="1" as="geometry">
            <mxPoint x="140" y="440" as="sourcePoint" />
            <mxPoint x="340" y="310" as="targetPoint" />
            <Array as="points">
              <mxPoint x="178" y="440" />
            </Array>
          </mxGeometry>
        </mxCell>
        <mxCell id="B6Qjt9TekkukQeBUbV8k-16" value="" style="verticalLabelPosition=bottom;shadow=0;dashed=0;align=center;html=1;verticalAlign=top;shape=mxgraph.electrical.logic_gates.inverter_2;strokeWidth=3;" vertex="1" parent="1">
          <mxGeometry x="270" y="420" width="60" height="40" as="geometry" />
        </mxCell>
        <mxCell id="B6Qjt9TekkukQeBUbV8k-17" value="" style="endArrow=none;html=1;rounded=0;strokeWidth=3;" edge="1" parent="1" target="B6Qjt9TekkukQeBUbV8k-16">
          <mxGeometry width="50" height="50" relative="1" as="geometry">
            <mxPoint x="170" y="440" as="sourcePoint" />
            <mxPoint x="340" y="310" as="targetPoint" />
          </mxGeometry>
        </mxCell>
        <mxCell id="B6Qjt9TekkukQeBUbV8k-18" value="" style="endArrow=classic;html=1;rounded=0;entryX=0;entryY=0.5;entryDx=0;entryDy=0;exitX=1;exitY=0.5;exitDx=0;exitDy=0;exitPerimeter=0;strokeWidth=3;" edge="1" parent="1" source="B6Qjt9TekkukQeBUbV8k-16" target="B6Qjt9TekkukQeBUbV8k-4">
          <mxGeometry width="50" height="50" relative="1" as="geometry">
            <mxPoint x="240" y="390" as="sourcePoint" />
            <mxPoint x="290" y="340" as="targetPoint" />
            <Array as="points">
              <mxPoint x="463" y="440" />
            </Array>
          </mxGeometry>
        </mxCell>
        <mxCell id="B6Qjt9TekkukQeBUbV8k-20" value="" style="endArrow=classic;html=1;rounded=0;entryX=0.5;entryY=0;entryDx=0;entryDy=0;strokeWidth=3;" edge="1" parent="1" target="B6Qjt9TekkukQeBUbV8k-1">
          <mxGeometry width="50" height="50" relative="1" as="geometry">
            <mxPoint x="120" y="341" as="sourcePoint" />
            <mxPoint x="290" y="340" as="targetPoint" />
          </mxGeometry>
        </mxCell>
        <mxCell id="B6Qjt9TekkukQeBUbV8k-21" value="" style="rounded=1;whiteSpace=wrap;html=1;strokeWidth=3;" vertex="1" parent="1">
          <mxGeometry x="530" y="296.25" width="120" height="40" as="geometry" />
        </mxCell>
        <mxCell id="B6Qjt9TekkukQeBUbV8k-28" value="" style="rounded=1;whiteSpace=wrap;html=1;strokeWidth=3;" vertex="1" parent="1">
          <mxGeometry x="540" y="306.25" width="120" height="40" as="geometry" />
        </mxCell>
        <mxCell id="B6Qjt9TekkukQeBUbV8k-29" value="" style="rounded=1;whiteSpace=wrap;html=1;strokeWidth=3;" vertex="1" parent="1">
          <mxGeometry x="550" y="316.25" width="120" height="40" as="geometry" />
        </mxCell>
        <mxCell id="B6Qjt9TekkukQeBUbV8k-30" value="" style="rounded=1;whiteSpace=wrap;html=1;strokeWidth=3;" vertex="1" parent="1">
          <mxGeometry x="560" y="326.25" width="120" height="40" as="geometry" />
        </mxCell>
        <mxCell id="B6Qjt9TekkukQeBUbV8k-31" value="" style="rounded=1;whiteSpace=wrap;html=1;strokeWidth=3;" vertex="1" parent="1">
          <mxGeometry x="570" y="336.25" width="120" height="40" as="geometry" />
        </mxCell>
        <mxCell id="B6Qjt9TekkukQeBUbV8k-32" value="" style="rounded=1;whiteSpace=wrap;html=1;strokeWidth=3;" vertex="1" parent="1">
          <mxGeometry x="580" y="346.25" width="120" height="40" as="geometry" />
        </mxCell>
        <mxCell id="B6Qjt9TekkukQeBUbV8k-36" value="" style="endArrow=classic;html=1;rounded=0;entryX=0;entryY=0.5;entryDx=0;entryDy=0;exitX=0.5;exitY=1;exitDx=0;exitDy=0;strokeWidth=3;" edge="1" parent="1" source="B6Qjt9TekkukQeBUbV8k-4" target="B6Qjt9TekkukQeBUbV8k-35">
          <mxGeometry width="50" height="50" relative="1" as="geometry">
            <mxPoint x="420" y="400" as="sourcePoint" />
            <mxPoint x="470" y="350" as="targetPoint" />
          </mxGeometry>
        </mxCell>
        <mxCell id="B6Qjt9TekkukQeBUbV8k-37" value="&lt;font style=&quot;font-size: 14px;&quot; face=&quot;Times New Roman&quot;&gt;&lt;b&gt;CORRELATORS&lt;/b&gt;&lt;/font&gt;" style="text;html=1;align=center;verticalAlign=middle;whiteSpace=wrap;rounded=0;" vertex="1" parent="1">
          <mxGeometry x="580" y="351.25" width="120" height="30" as="geometry" />
        </mxCell>
        <mxCell id="B6Qjt9TekkukQeBUbV8k-38" value="" style="endArrow=classic;html=1;rounded=0;exitX=1;exitY=0.5;exitDx=0;exitDy=0;strokeWidth=3;" edge="1" parent="1" source="B6Qjt9TekkukQeBUbV8k-35">
          <mxGeometry width="50" height="50" relative="1" as="geometry">
            <mxPoint x="410" y="390" as="sourcePoint" />
            <mxPoint x="750" y="341" as="targetPoint" />
          </mxGeometry>
        </mxCell>
        <mxCell id="B6Qjt9TekkukQeBUbV8k-39" value="&lt;font style=&quot;font-size: 14px;&quot; face=&quot;Times New Roman&quot;&gt;&lt;b&gt;TO DISCRIMINATORS&lt;/b&gt;&lt;/font&gt;" style="text;html=1;align=center;verticalAlign=middle;whiteSpace=wrap;rounded=0;rotation=-90;" vertex="1" parent="1">
          <mxGeometry x="670" y="331.25" width="180" height="30" as="geometry" />
        </mxCell>
        <mxCell id="B6Qjt9TekkukQeBUbV8k-40" value="&lt;font style=&quot;font-size: 14px;&quot; face=&quot;Times New Roman&quot;&gt;&lt;b&gt;INPUT DATA STREAM&lt;/b&gt;&lt;/font&gt;" style="text;html=1;align=center;verticalAlign=middle;whiteSpace=wrap;rounded=0;rotation=-90;" vertex="1" parent="1">
          <mxGeometry x="30" y="326.25" width="160" height="30" as="geometry" />
        </mxCell>
        <mxCell id="B6Qjt9TekkukQeBUbV8k-41" value="&lt;font style=&quot;font-size: 14px;&quot; face=&quot;Times New Roman&quot;&gt;&lt;b&gt;PING_TRANSFER_DONE&lt;/b&gt;&lt;/font&gt;" style="text;html=1;align=center;verticalAlign=middle;whiteSpace=wrap;rounded=0;" vertex="1" parent="1">
          <mxGeometry x="60" y="440" width="180" height="30" as="geometry" />
        </mxCell>
        <mxCell id="B6Qjt9TekkukQeBUbV8k-42" value="" style="shape=waypoint;sketch=0;fillStyle=solid;size=6;pointerEvents=1;points=[];fillColor=none;resizable=0;rotatable=0;perimeter=centerPerimeter;snapToPoint=1;" vertex="1" parent="1">
          <mxGeometry x="130" y="430" width="20" height="20" as="geometry" />
        </mxCell>
      </root>
    </mxGraphModel>
  </diagram>
</mxfile>
